<?xml version="1.0" standalone="no"?>
<!DOCTYPE svg PUBLIC "-//W3C//DTD SVG 20010904//EN"
 "http://www.w3.org/TR/2001/REC-SVG-20010904/DTD/svg10.dtd">
<svg version="1.0" xmlns="http://www.w3.org/2000/svg"
 width="300.000000pt" height="300.000000pt" viewBox="0 0 300.000000 300.000000"
 preserveAspectRatio="xMidYMid meet">

<g transform="translate(0.000000,300.000000) scale(0.100000,-0.100000)"
fill="#000000" stroke="none">
<path d="M132 2809 c-118 -46 -149 -169 -122 -478 5 -64 15 -174 21 -246 31
-364 58 -455 175 -585 92 -101 264 -182 414 -195 149 -13 165 -24 68 -44 -59
-12 -154 -42 -224 -73 -91 -39 -178 -124 -203 -197 -48 -144 60 -374 279 -591
165 -166 277 -229 401 -230 77 0 117 12 178 53 127 87 225 254 325 555 26 78
51 142 56 142 5 0 16 -26 25 -58 143 -517 278 -698 504 -679 97 8 170 37 283
113 253 171 425 431 404 612 -19 158 -174 289 -418 352 -82 21 -63 31 82 45
145 14 303 87 401 186 90 90 134 180 154 314 22 154 50 454 61 665 7 125 -8
214 -47 277 -40 64 -157 97 -261 73 -62 -14 -225 -94 -309 -151 -183 -124
-415 -356 -614 -614 -65 -84 -207 -293 -249 -367 -17 -31 -19 -32 -30 -14
-289 482 -639 867 -949 1046 -132 76 -200 101 -281 106 -56 3 -82 0 -124 -17z"/>
</g>
</svg>
