<?xml version="1.0" standalone="no"?>
<!DOCTYPE svg PUBLIC "-//W3C//DTD SVG 20010904//EN"
 "http://www.w3.org/TR/2001/REC-SVG-20010904/DTD/svg10.dtd">
<svg version="1.0" xmlns="http://www.w3.org/2000/svg"
 width="3840.000000pt" height="2160.000000pt" viewBox="0 0 3840.000000 2160.000000"
 preserveAspectRatio="xMidYMid meet">

<g transform="translate(0.000000,2160.000000) scale(0.100000,-0.100000)"
fill="#000000" stroke="none">
<path d="M13659 21355 c-3 -2 -111 -8 -240 -12 -311 -9 -623 -32 -648 -47 -7
-5 -37 -10 -65 -12 -142 -10 -533 -83 -694 -130 -48 -15 -116 -34 -152 -44
-310 -88 -714 -266 -1009 -444 -340 -207 -548 -373 -870 -696 -240 -241 -462
-514 -591 -725 -125 -204 -228 -396 -305 -570 -28 -64 -128 -320 -163 -420
-76 -214 -165 -601 -202 -885 -6 -47 -15 -112 -20 -145 -25 -164 -34 -236 -36
-305 -1 -41 -7 -160 -13 -265 -8 -136 -10 -1806 -7 -5870 2 -3124 6 -5750 9
-5836 2 -91 9 -164 16 -177 8 -15 10 -47 6 -96 -5 -54 -3 -82 8 -103 7 -15 15
-64 16 -107 1 -44 6 -87 12 -97 5 -10 9 -34 9 -55 0 -20 5 -64 10 -98 22 -133
60 -352 64 -371 19 -87 70 -292 87 -345 11 -36 24 -81 30 -100 42 -140 199
-514 287 -685 217 -423 440 -728 784 -1075 198 -199 269 -264 458 -410 298
-231 606 -409 995 -575 61 -26 117 -48 125 -50 8 -2 62 -20 120 -40 58 -20
110 -38 115 -39 6 -1 16 -5 23 -9 6 -5 12 -6 12 -2 0 3 8 1 18 -4 11 -6 31
-12 45 -15 14 -2 41 -11 59 -20 82 -38 401 -110 608 -137 360 -46 552 -65 805
-79 250 -13 11395 -13 11650 1 281 14 563 40 583 53 7 4 43 9 80 11 161 8 508
74 742 140 579 165 1013 375 1475 713 179 132 294 234 520 463 350 354 564
646 776 1054 168 324 323 748 403 1105 30 135 86 456 90 520 5 72 25 233 32
260 4 14 8 63 9 110 1 47 7 132 13 190 6 58 11 147 11 198 1 54 5 92 11 92 13
0 14 11167 0 11172 -8 3 -27 305 -34 568 -2 52 -8 113 -14 135 -6 22 -12 60
-12 84 0 24 -4 71 -10 105 -5 33 -17 111 -26 171 -19 131 -68 394 -90 485 -45
180 -130 449 -186 585 -16 39 -38 94 -49 123 -52 135 -266 541 -357 677 -186
278 -335 460 -576 701 -310 310 -537 490 -870 688 -129 77 -425 230 -513 265
-27 10 -86 34 -133 53 -379 155 -770 249 -1270 308 -52 6 -131 18 -175 26
-208 37 -426 38 -6181 41 -3080 2 -5603 1 -5605 -2z m6583 -4780 c134 0 159
-3 175 -18 21 -19 73 -23 89 -7 7 7 43 7 110 0 54 -6 151 -15 214 -20 63 -4
142 -15 175 -23 33 -8 103 -17 156 -21 59 -3 118 -13 150 -25 70 -26 145 -43
189 -42 19 0 58 -6 85 -14 28 -9 118 -33 200 -54 83 -22 202 -56 265 -76 63
-19 161 -49 216 -65 56 -17 135 -45 175 -63 41 -19 139 -59 219 -91 214 -84
693 -327 842 -428 188 -126 400 -292 531 -418 32 -30 63 -56 68 -58 17 -7 9
-32 -23 -75 -35 -46 -206 -283 -313 -432 -99 -138 -276 -377 -471 -636 -72
-96 -174 -235 -227 -309 -52 -74 -116 -162 -142 -195 -55 -71 -153 -204 -213
-289 -24 -34 -67 -90 -96 -126 -28 -36 -63 -81 -76 -100 -38 -56 -110 -139
-130 -150 -14 -8 -55 13 -207 106 -257 157 -606 329 -798 392 -246 82 -359
113 -442 121 -44 5 -90 15 -104 23 -28 18 -208 46 -349 54 -36 2 -92 6 -125 8
-164 12 -330 14 -420 6 -400 -36 -563 -66 -802 -146 -354 -118 -533 -207 -812
-406 -95 -68 -327 -297 -415 -411 -194 -251 -349 -535 -415 -762 -10 -33 -36
-118 -59 -190 -37 -119 -62 -253 -62 -333 0 -18 -7 -44 -16 -57 -13 -20 -17
-59 -20 -189 -2 -90 -7 -181 -12 -203 -6 -24 -5 -48 1 -63 5 -14 10 -101 11
-195 1 -93 5 -175 9 -181 4 -7 14 -65 22 -130 18 -142 34 -220 51 -254 6 -14
15 -48 19 -75 4 -28 14 -66 21 -85 7 -19 18 -55 24 -80 30 -119 181 -440 272
-580 88 -135 273 -364 358 -443 198 -184 476 -378 645 -450 168 -72 255 -106
302 -120 28 -9 60 -20 70 -25 10 -6 65 -19 123 -30 58 -11 130 -25 160 -32 30
-6 109 -17 175 -24 66 -7 137 -19 158 -26 30 -11 42 -12 57 -2 28 17 54 15 82
-8 23 -18 31 -18 87 -9 45 8 74 8 105 0 40 -10 49 -8 95 16 47 26 51 26 69 10
23 -21 36 -21 65 -3 20 13 92 19 379 32 37 1 77 8 89 14 12 7 48 14 81 15 33
2 65 8 71 13 7 6 35 13 62 17 28 4 64 13 80 21 17 7 57 22 90 33 153 49 349
122 441 165 56 25 104 46 108 46 20 0 469 234 651 340 83 47 185 106 228 129
42 23 91 54 109 69 l31 26 32 -38 c18 -21 67 -98 110 -170 43 -72 121 -197
174 -278 53 -81 112 -175 131 -209 19 -34 49 -81 66 -103 17 -23 43 -63 58
-90 15 -28 49 -84 75 -125 26 -42 70 -112 97 -156 88 -141 167 -264 240 -373
38 -59 87 -138 109 -177 21 -38 46 -81 56 -95 59 -85 231 -355 258 -405 18
-33 46 -74 62 -90 16 -17 29 -36 29 -41 0 -41 -527 -429 -780 -574 -41 -24
-107 -63 -146 -87 -85 -51 -683 -346 -734 -361 -19 -6 -107 -36 -195 -67 -433
-152 -450 -157 -715 -224 -535 -135 -489 -125 -516 -110 -21 11 -27 10 -47 -9
-28 -26 -93 -41 -181 -42 -58 0 -72 -4 -99 -26 -28 -24 -38 -26 -121 -25 -148
2 -297 -7 -309 -18 -7 -5 -46 -13 -87 -17 -81 -8 -100 -9 -205 -4 -41 2 -92
-3 -125 -12 -40 -11 -64 -13 -90 -5 -40 11 -188 3 -201 -10 -6 -6 -32 -6 -67
0 -31 6 -127 11 -212 12 -85 0 -168 4 -183 9 -19 6 -37 4 -53 -4 -19 -11 -32
-11 -61 -1 -22 7 -71 10 -118 7 -80 -4 -194 6 -270 23 -22 6 -94 15 -160 21
-136 13 -156 16 -240 30 -33 6 -109 19 -170 30 -136 23 -273 56 -428 104 -65
20 -124 36 -132 36 -7 0 -76 18 -152 40 -177 51 -263 84 -752 288 -108 45
-399 190 -537 268 -222 125 -623 408 -801 566 -340 302 -401 365 -683 699
-244 290 -478 669 -683 1109 -35 75 -89 212 -102 260 -4 14 -17 50 -30 80 -13
30 -35 84 -49 119 -15 36 -31 95 -36 132 -5 43 -16 78 -28 94 -12 15 -26 52
-32 83 -6 31 -17 68 -24 82 -7 14 -16 62 -20 108 -4 45 -18 118 -31 161 -14
43 -32 121 -40 172 -8 52 -19 110 -24 129 -14 48 -42 335 -40 401 1 31 -4 66
-12 79 -27 50 -33 990 -8 1175 6 39 12 104 14 145 5 106 33 307 49 360 8 25
21 99 31 165 9 66 25 147 35 180 10 33 21 78 25 100 3 22 15 67 25 100 10 33
33 107 51 165 103 339 190 552 333 818 36 67 66 124 66 128 0 3 36 63 79 134
184 295 341 507 582 785 103 119 463 475 569 562 403 331 795 592 1157 770
204 100 258 125 398 183 55 23 123 52 150 64 286 130 513 207 855 292 146 37
301 77 345 89 44 13 123 28 175 35 52 7 109 18 126 26 16 7 73 18 125 24 94
11 276 42 358 61 25 6 90 9 145 8 56 -1 130 1 166 5 37 4 84 3 109 -2 37 -9
49 -7 80 9 32 17 49 19 141 14 63 -4 117 -2 135 4 19 7 70 8 135 4 58 -4 175
-7 262 -8z"/>
</g>
</svg>
