<?xml version="1.0" standalone="no"?>
<!DOCTYPE svg PUBLIC "-//W3C//DTD SVG 20010904//EN"
 "http://www.w3.org/TR/2001/REC-SVG-20010904/DTD/svg10.dtd">
<svg version="1.0" xmlns="http://www.w3.org/2000/svg"
 width="300.000000pt" height="300.000000pt" viewBox="0 0 300.000000 300.000000"
 preserveAspectRatio="xMidYMid meet">

<g transform="translate(0.000000,300.000000) scale(0.100000,-0.100000)"
fill="#000000" stroke="none">
<path d="M660 2960 c-114 -9 -182 -26 -265 -66 -164 -78 -282 -221 -332 -405
-17 -59 -18 -136 -18 -989 0 -864 1 -929 18 -989 32 -113 83 -199 166 -282
102 -102 209 -157 350 -180 72 -11 1738 -15 1819 -4 284 40 485 220 549 492
17 72 18 141 18 963 0 998 2 962 -77 1123 -72 145 -219 266 -378 311 -30 8
-104 20 -165 26 -122 11 -1546 11 -1685 0z m1204 -689 c99 -26 228 -88 281
-134 l39 -34 -18 -28 c-10 -15 -63 -87 -117 -161 l-99 -134 -63 35 c-196 107
-443 79 -557 -65 -61 -77 -75 -123 -75 -250 0 -110 1 -118 33 -182 38 -77 92
-130 171 -167 51 -24 67 -26 171 -25 127 1 183 16 306 87 l62 35 80 -127 c44
-69 90 -144 103 -165 l23 -39 -27 -21 c-210 -167 -592 -240 -872 -166 -102 27
-244 96 -317 154 -121 96 -213 241 -254 401 -25 96 -25 322 -1 420 67 266 295
480 598 559 134 35 129 35 299 31 120 -2 173 -7 234 -24z"/>
</g>
</svg>
