<?xml version="1.0" standalone="no"?>
<!DOCTYPE svg PUBLIC "-//W3C//DTD SVG 20010904//EN"
 "http://www.w3.org/TR/2001/REC-SVG-20010904/DTD/svg10.dtd">
<svg version="1.0" xmlns="http://www.w3.org/2000/svg"
 width="642.000000pt" height="642.000000pt" viewBox="0 0 642.000000 642.000000"
 preserveAspectRatio="xMidYMid meet">

<g transform="translate(0.000000,642.000000) scale(0.100000,-0.100000)"
fill="#000000" stroke="none">
<path d="M3597 4033 c-3 -1983 3 -1807 -71 -1968 -118 -253 -373 -415 -650
-415 -125 0 -214 21 -326 76 -82 41 -109 61 -192 144 -80 81 -103 112 -137
181 -56 118 -74 194 -74 319 0 206 81 393 232 533 116 107 250 168 414 190 83
11 159 5 270 -19 l27 -6 0 440 0 439 -57 7 c-94 10 -292 9 -383 -4 -441 -59
-856 -320 -1105 -695 -64 -95 -153 -279 -189 -385 -57 -172 -70 -268 -70 -500
0 -185 3 -229 22 -316 30 -140 65 -240 127 -371 81 -170 160 -279 309 -428
178 -177 324 -275 535 -360 217 -87 423 -121 661 -112 237 10 426 59 645 167
255 127 476 327 637 576 98 152 184 380 217 573 20 119 21 155 21 1072 0 522
3 949 6 949 4 0 46 -24 93 -53 176 -110 285 -162 468 -222 170 -56 450 -105
605 -105 l38 0 -2 433 -3 432 -92 6 c-180 13 -411 96 -578 209 -95 64 -229
190 -296 280 -55 73 -147 252 -178 347 -21 62 -46 198 -57 306 l-5 57 -429 0
-430 0 -3 -1777z"/>
</g>
</svg>
