<?xml version="1.0" standalone="no"?>
<!DOCTYPE svg PUBLIC "-//W3C//DTD SVG 20010904//EN"
 "http://www.w3.org/TR/2001/REC-SVG-20010904/DTD/svg10.dtd">
<svg version="1.0" xmlns="http://www.w3.org/2000/svg"
 width="300.000000pt" height="300.000000pt" viewBox="0 0 300.000000 300.000000"
 preserveAspectRatio="xMidYMid meet">

<g transform="translate(0.000000,300.000000) scale(0.100000,-0.100000)"
fill="#000000" stroke="none">
<path d="M1678 1873 l-3 -848 -26 -55 c-34 -72 -97 -136 -167 -168 -48 -23
-71 -27 -142 -27 -73 1 -93 5 -140 28 -72 37 -143 108 -172 171 -35 78 -33
201 5 277 32 67 108 141 174 171 38 18 67 22 141 23 l92 0 0 197 0 198 -26 6
c-49 12 -226 -3 -294 -26 -203 -68 -354 -198 -445 -385 -57 -115 -75 -194 -75
-326 0 -228 81 -407 253 -557 322 -281 822 -232 1077 105 63 84 105 169 130
269 18 71 20 112 20 534 0 251 3 459 6 462 3 3 29 -9 57 -28 107 -71 283 -128
428 -140 l79 -7 0 202 0 201 -28 0 c-15 0 -55 7 -87 15 -222 56 -404 238 -436
437 -6 34 -13 72 -15 84 -3 18 -13 22 -80 28 -43 3 -132 6 -200 6 l-124 0 -2
-847z"/>
</g>
</svg>
