<?xml version="1.0" standalone="no"?>
<!DOCTYPE svg PUBLIC "-//W3C//DTD SVG 20010904//EN"
 "http://www.w3.org/TR/2001/REC-SVG-20010904/DTD/svg10.dtd">
<svg version="1.0" xmlns="http://www.w3.org/2000/svg"
 width="300.000000pt" height="300.000000pt" viewBox="0 0 300.000000 300.000000"
 preserveAspectRatio="xMidYMid meet">

<g transform="translate(0.000000,300.000000) scale(0.100000,-0.100000)"
fill="#000000" stroke="none">
<path d="M1825 2688 c-27 -5 -58 -14 -67 -19 -10 -5 -27 -9 -38 -9 -11 0 -28
-4 -38 -9 -9 -5 -57 -28 -107 -52 -100 -47 -151 -84 -241 -174 -136 -136 -208
-277 -255 -500 -7 -33 -14 -62 -16 -65 -4 -4 -79 75 -85 89 -4 10 -51 71 -93
119 -37 43 -110 91 -189 122 -94 38 -300 31 -351 -12 -5 -4 -15 -8 -22 -8 -14
0 -73 -41 -127 -87 -47 -42 -101 -130 -119 -194 -37 -131 -38 -143 -18 -242
10 -51 27 -108 37 -127 22 -40 80 -125 103 -151 9 -10 34 -41 56 -69 22 -28
60 -74 85 -102 25 -28 54 -63 65 -77 30 -40 261 -268 335 -331 36 -30 66 -58
68 -62 2 -5 10 -8 18 -8 8 0 14 -4 14 -8 0 -4 20 -21 45 -36 25 -16 45 -32 45
-35 0 -6 5 -9 77 -45 21 -11 40 -23 43 -26 3 -4 30 -18 60 -32 141 -66 136
-64 342 -109 85 -18 281 5 388 46 69 26 195 88 198 97 2 4 8 8 14 8 6 0 26 11
44 25 18 14 35 25 39 25 22 0 270 221 335 299 8 9 41 46 73 82 70 77 75 83
113 134 16 22 37 49 47 60 10 11 26 32 35 48 9 15 20 27 24 27 4 0 8 5 8 11 0
6 11 25 25 43 39 48 57 76 82 124 9 17 20 32 25 32 4 0 8 4 8 9 0 5 8 26 17
47 24 55 24 58 30 168 5 99 -3 161 -34 256 -15 45 -83 191 -94 200 -3 3 -14
20 -24 38 -11 17 -23 32 -27 32 -4 0 -8 6 -8 13 0 14 -73 101 -150 177 -76 76
-119 108 -210 157 -84 46 -155 70 -293 102 -56 13 -221 12 -292 -1z m250 -256
c64 -20 137 -57 195 -100 51 -37 153 -146 186 -198 10 -16 21 -31 24 -34 11
-10 69 -127 84 -170 9 -25 19 -68 22 -96 8 -67 -4 -96 -116 -259 -29 -44 -57
-82 -60 -85 -3 -3 -18 -23 -35 -45 -16 -22 -32 -42 -35 -45 -3 -3 -16 -18 -29
-35 -69 -92 -283 -315 -301 -315 -6 0 -10 -4 -10 -8 0 -18 -162 -130 -250
-172 -103 -49 -162 -63 -265 -64 -102 0 -158 12 -252 55 -24 10 -45 19 -48 19
-8 0 -119 67 -174 105 -111 77 -348 301 -466 440 -27 32 -58 67 -67 77 -10 10
-18 22 -18 27 0 5 -4 11 -9 13 -13 5 -131 155 -131 166 0 6 -5 12 -10 14 -6 2
-14 28 -17 59 -4 42 -1 64 12 89 43 84 125 123 205 99 52 -16 65 -27 160 -149
41 -52 82 -102 90 -111 8 -9 47 -51 85 -95 102 -114 149 -161 250 -248 50 -42
95 -80 100 -84 18 -13 90 -59 117 -75 15 -10 34 -17 43 -17 8 0 15 -4 15 -9 0
-15 105 -33 147 -25 37 6 60 17 131 57 l32 19 -53 51 c-79 79 -176 188 -208
238 -16 24 -33 49 -39 56 -5 7 -10 18 -10 26 0 7 -4 17 -10 23 -19 19 -43 141
-43 224 1 134 16 191 87 328 10 17 22 32 27 32 5 0 9 5 9 11 0 21 126 129 189
161 106 54 155 66 276 67 80 1 126 -4 170 -17z"/>
<path d="M1804 2082 c-38 -21 -84 -58 -84 -67 0 -3 -7 -13 -15 -21 -25 -25
-47 -120 -40 -167 13 -77 34 -108 154 -228 65 -65 121 -119 124 -119 10 0 52
43 83 85 16 22 31 42 35 45 18 16 112 147 120 167 14 38 11 102 -8 141 -29 61
-97 132 -155 163 -49 25 -169 26 -214 1z"/>
</g>
</svg>
