<?xml version="1.0" standalone="no"?>
<!DOCTYPE svg PUBLIC "-//W3C//DTD SVG 20010904//EN"
 "http://www.w3.org/TR/2001/REC-SVG-20010904/DTD/svg10.dtd">
<svg version="1.0" xmlns="http://www.w3.org/2000/svg"
 width="200.000000pt" height="200.000000pt" viewBox="0 0 200.000000 200.000000"
 preserveAspectRatio="xMidYMid meet">

<g transform="translate(0.000000,200.000000) scale(0.100000,-0.100000)"
fill="#000000" stroke="none">
<path d="M1151 1644 c-184 -49 -336 -213 -374 -403 l-13 -64 -58 72 c-31 39
-74 82 -94 96 -136 88 -327 36 -396 -108 -75 -157 -30 -265 222 -529 220 -230
387 -330 572 -345 234 -18 483 152 731 498 99 138 112 173 107 275 -4 75 -9
93 -52 180 -39 78 -63 111 -129 177 -121 121 -227 167 -382 166 -44 0 -104 -7
-134 -15z m248 -158 c116 -59 231 -224 231 -330 0 -46 -6 -59 -61 -136 -152
-210 -278 -333 -409 -398 -68 -34 -81 -37 -160 -37 -74 0 -93 4 -150 31 -135
64 -324 234 -468 423 -66 85 -74 131 -33 175 54 57 119 42 181 -40 125 -166
271 -305 381 -364 50 -27 69 -31 105 -27 24 2 55 12 69 21 l26 17 -53 60
c-119 134 -148 192 -148 298 0 148 89 274 230 325 70 25 190 17 259 -18z"/>
<path d="M1172 1299 c-42 -27 -62 -67 -62 -122 0 -50 26 -91 107 -170 l50 -48
45 53 c115 135 121 165 52 251 -47 59 -132 74 -192 36z"/>
</g>
</svg>
